<svg width="92" height="52" viewBox="0 0 92 52" fill="none" xmlns="http://www.w3.org/2000/svg">
<path d="M27.641 21.3548C27.3715 20.6066 26.5464 20.2185 25.7982 20.4881L1.35476 29.2943C0.60655 29.5638 0.218519 30.3889 0.488077 31.1371L7.46007 50.4894C7.72962 51.2376 8.55469 51.6256 9.30291 51.3561L33.7463 42.5499C34.4946 42.2803 34.8826 41.4553 34.613 40.707L27.641 21.3548ZM26.1942 25.8538C26.3377 26.2523 26.2675 26.6965 26.008 27.0313L18.6073 36.5785C18.2655 37.0195 17.6997 37.2233 17.1552 37.1016L5.36614 34.4679C4.95277 34.3755 4.61536 34.0781 4.47179 33.6797C4.14107 32.7616 4.95342 31.8399 5.90572 32.0526L16.1617 34.3439C16.7062 34.4656 17.272 34.2617 17.6138 33.8208L24.0521 25.5151C24.6499 24.7439 25.8634 24.9358 26.1942 25.8538Z" fill="#29A8DF"/>
<path d="M28 33C39 29.6667 59.9 27.0369 59.5 15.4369C59 0.936897 34.5 -5.5631 37.5 9.9369C40.5 25.4369 61.5 31.4369 75 29.4369C85.8 27.8369 90.5 25.7702 91.5 24.9369" stroke="#29A8DF" stroke-dasharray="4 4"/>
</svg>
