<svg width="103" height="99" viewBox="0 0 103 99" fill="none" xmlns="http://www.w3.org/2000/svg">
<g clip-path="url(#clip0_189_2773)">
<circle cx="2.06757" cy="2.06757" r="2.06757" fill="white"/>
<circle cx="14.4733" cy="2.06757" r="2.06757" fill="white"/>
<circle cx="26.8786" cy="2.06757" r="2.06757" fill="white"/>
<circle cx="39.2839" cy="2.06757" r="2.06757" fill="white"/>
<circle cx="51.6896" cy="2.06757" r="2.06757" fill="white"/>
<circle cx="64.0949" cy="2.06757" r="2.06757" fill="white"/>
<circle cx="76.5002" cy="2.06757" r="2.06757" fill="white"/>
<circle cx="88.9055" cy="2.06757" r="2.06757" fill="white"/>
<circle cx="101.311" cy="2.06757" r="2.06757" fill="white"/>
<circle cx="2.06757" cy="11.9924" r="2.06757" fill="white"/>
<circle cx="14.4733" cy="11.9924" r="2.06757" fill="white"/>
<circle cx="26.8786" cy="11.9924" r="2.06757" fill="white"/>
<circle cx="39.2839" cy="11.9924" r="2.06757" fill="white"/>
<circle cx="51.6896" cy="11.9924" r="2.06757" fill="white"/>
<circle cx="64.0949" cy="11.9924" r="2.06757" fill="white"/>
<circle cx="76.5002" cy="11.9924" r="2.06757" fill="white"/>
<circle cx="88.9055" cy="11.9924" r="2.06757" fill="white"/>
<circle cx="101.311" cy="11.9924" r="2.06757" fill="white"/>
<circle cx="2.06757" cy="21.9162" r="2.06757" fill="white"/>
<circle cx="14.4733" cy="21.9162" r="2.06757" fill="white"/>
<circle cx="26.8786" cy="21.9162" r="2.06757" fill="white"/>
<circle cx="39.2839" cy="21.9162" r="2.06757" fill="white"/>
<circle cx="51.6896" cy="21.9162" r="2.06757" fill="white"/>
<circle cx="64.0949" cy="21.9162" r="2.06757" fill="white"/>
<circle cx="76.5002" cy="21.9162" r="2.06757" fill="white"/>
<circle cx="88.9055" cy="21.9162" r="2.06757" fill="white"/>
<circle cx="101.311" cy="21.9162" r="2.06757" fill="white"/>
<circle cx="2.06757" cy="31.841" r="2.06757" fill="white"/>
<circle cx="14.4733" cy="31.841" r="2.06757" fill="white"/>
<circle cx="26.8786" cy="31.841" r="2.06757" fill="white"/>
<circle cx="39.2839" cy="31.841" r="2.06757" fill="white"/>
<circle cx="51.6896" cy="31.841" r="2.06757" fill="white"/>
<circle cx="64.0949" cy="31.841" r="2.06757" fill="white"/>
<circle cx="76.5002" cy="31.841" r="2.06757" fill="white"/>
<circle cx="88.9055" cy="31.841" r="2.06757" fill="white"/>
<circle cx="101.311" cy="31.841" r="2.06757" fill="white"/>
<circle cx="2.06757" cy="41.7648" r="2.06757" fill="white"/>
<circle cx="14.4733" cy="41.7648" r="2.06757" fill="white"/>
<circle cx="26.8786" cy="41.7648" r="2.06757" fill="white"/>
<circle cx="39.2839" cy="41.7648" r="2.06757" fill="white"/>
<circle cx="51.6896" cy="41.7648" r="2.06757" fill="white"/>
<circle cx="64.0949" cy="41.7648" r="2.06757" fill="white"/>
<circle cx="76.5002" cy="41.7648" r="2.06757" fill="white"/>
<circle cx="88.9055" cy="41.7648" r="2.06757" fill="white"/>
<circle cx="101.311" cy="41.7648" r="2.06757" fill="white"/>
<circle cx="2.06757" cy="51.6896" r="2.06757" fill="white"/>
<circle cx="14.4733" cy="51.6896" r="2.06757" fill="white"/>
<circle cx="26.8786" cy="51.6896" r="2.06757" fill="white"/>
<circle cx="39.2839" cy="51.6896" r="2.06757" fill="white"/>
<circle cx="51.6896" cy="51.6896" r="2.06757" fill="white"/>
<circle cx="64.0949" cy="51.6896" r="2.06757" fill="white"/>
<circle cx="76.5002" cy="51.6896" r="2.06757" fill="white"/>
<circle cx="88.9055" cy="51.6896" r="2.06757" fill="white"/>
<circle cx="101.311" cy="51.6896" r="2.06757" fill="white"/>
<circle cx="2.06757" cy="61.6135" r="2.06757" fill="white"/>
<circle cx="14.4733" cy="61.6135" r="2.06757" fill="white"/>
<circle cx="26.8786" cy="61.6135" r="2.06757" fill="white"/>
<circle cx="39.2839" cy="61.6135" r="2.06757" fill="white"/>
<circle cx="51.6896" cy="61.6135" r="2.06757" fill="white"/>
<circle cx="64.0949" cy="61.6135" r="2.06757" fill="white"/>
<circle cx="76.5002" cy="61.6135" r="2.06757" fill="white"/>
<circle cx="88.9055" cy="61.6135" r="2.06757" fill="white"/>
<circle cx="101.311" cy="61.6135" r="2.06757" fill="white"/>
<circle cx="2.06757" cy="71.5383" r="2.06757" fill="white"/>
<circle cx="14.4733" cy="71.5383" r="2.06757" fill="white"/>
<circle cx="26.8786" cy="71.5383" r="2.06757" fill="white"/>
<circle cx="39.2839" cy="71.5383" r="2.06757" fill="white"/>
<circle cx="51.6896" cy="71.5383" r="2.06757" fill="white"/>
<circle cx="64.0949" cy="71.5383" r="2.06757" fill="white"/>
<circle cx="76.5002" cy="71.5383" r="2.06757" fill="white"/>
<circle cx="88.9055" cy="71.5383" r="2.06757" fill="white"/>
<circle cx="101.311" cy="71.5383" r="2.06757" fill="white"/>
<circle cx="2.06757" cy="81.4621" r="2.06757" fill="white"/>
<circle cx="14.4733" cy="81.4621" r="2.06757" fill="white"/>
<circle cx="26.8786" cy="81.4621" r="2.06757" fill="white"/>
<circle cx="39.2839" cy="81.4621" r="2.06757" fill="white"/>
<circle cx="51.6896" cy="81.4621" r="2.06757" fill="white"/>
<circle cx="64.0949" cy="81.4621" r="2.06757" fill="white"/>
<circle cx="76.5002" cy="81.4621" r="2.06757" fill="white"/>
<circle cx="88.9055" cy="81.4621" r="2.06757" fill="white"/>
<circle cx="101.311" cy="81.4621" r="2.06757" fill="white"/>
<circle cx="2.06757" cy="91.3869" r="2.06757" fill="white"/>
<circle cx="14.4733" cy="91.3869" r="2.06757" fill="white"/>
<circle cx="26.8786" cy="91.3869" r="2.06757" fill="white"/>
<circle cx="39.2839" cy="91.3869" r="2.06757" fill="white"/>
<circle cx="51.6896" cy="91.3869" r="2.06757" fill="white"/>
<circle cx="64.0949" cy="91.3869" r="2.06757" fill="white"/>
<circle cx="76.5002" cy="91.3869" r="2.06757" fill="white"/>
<circle cx="88.9055" cy="91.3869" r="2.06757" fill="white"/>
<circle cx="101.311" cy="91.3869" r="2.06757" fill="white"/>
</g>
<defs>
<clipPath id="clip0_189_2773">
<rect width="103" height="99" fill="white"/>
</clipPath>
</defs>
</svg>
