<svg width="9" height="15" viewBox="0 0 9 15" fill="none" xmlns="http://www.w3.org/2000/svg">
<path d="M3.57874 10.87C2.49026 10.7572 1.50896 10.4893 0.668114 9.83138C0.561433 9.75316 0.459029 9.66926 0.361343 9.58005C0.202281 9.43833 0.100584 9.2433 0.0754364 9.03175C0.0502889 8.82021 0.10343 8.60677 0.224836 8.43171C0.346241 8.25665 0.527515 8.13207 0.734458 8.08148C0.941402 8.03089 1.15971 8.05778 1.34818 8.15708C1.43253 8.19691 1.51296 8.24455 1.58843 8.29938C2.36739 8.82802 3.28523 9.11463 4.2266 9.12318C5.16797 9.13173 6.09087 8.86184 6.8793 8.34743C7.0319 8.22553 7.20714 8.13509 7.3949 8.08131C7.56807 8.03089 7.75314 8.03989 7.9206 8.10687C8.08806 8.17386 8.22828 8.29497 8.31891 8.45092C8.54991 8.82052 8.54621 9.19012 8.26347 9.48211C7.82891 9.92218 7.30356 10.2621 6.72407 10.4782C6.16044 10.6804 5.57378 10.8113 4.97769 10.8681C5.06824 10.9661 5.11075 11.0141 5.16249 11.0714C5.97192 11.8845 6.7832 12.6921 7.58894 13.5089C7.71799 13.625 7.80581 13.7799 7.83914 13.9502C7.87248 14.1206 7.84952 14.2971 7.77374 14.4533C7.69525 14.6238 7.56815 14.7674 7.40837 14.8661C7.2486 14.9647 7.06326 15.014 6.87561 15.0077C6.65534 14.9893 6.45041 14.8875 6.30272 14.7231C5.69103 14.1095 5.07009 13.5052 4.47133 12.8751C4.29762 12.6903 4.21446 12.7272 4.06107 12.8751C3.44507 13.5071 2.8229 14.1317 2.19458 14.749C2.07809 14.8777 1.92224 14.9642 1.75139 14.9949C1.58054 15.0257 1.4043 14.999 1.25024 14.919C1.0829 14.8414 0.941549 14.717 0.843193 14.561C0.744837 14.4049 0.693666 14.2238 0.695835 14.0393C0.713362 13.8111 0.819491 13.5989 0.991517 13.448C1.79109 12.6496 2.5919 11.8488 3.39394 11.0455C3.45308 11.0086 3.50113 10.9568 3.57874 10.87Z" fill="white"/>
<path d="M4.24201 8.08686C3.53779 8.08278 2.85064 7.86966 2.26769 7.47454C1.68474 7.07941 1.23226 6.52007 0.967626 5.86745C0.702987 5.21483 0.638112 4.49832 0.781225 3.80877C0.924338 3.11923 1.26899 2.48772 1.77149 1.99431C2.27398 1.50091 2.91168 1.16783 3.60372 1.03733C4.29576 0.906826 5.01097 0.984768 5.65865 1.26127C6.30634 1.53778 6.85732 2.00039 7.24174 2.59045C7.62616 3.18051 7.8267 3.87144 7.81793 4.57562C7.80575 5.51429 7.42304 6.4101 6.75322 7.06781C6.08339 7.72552 5.18075 8.09181 4.24201 8.08686ZM6.00687 4.52942C6.00613 4.18517 5.90323 3.84889 5.71121 3.56316C5.51919 3.27744 5.24669 3.05514 4.92822 2.92442C4.60975 2.7937 4.25965 2.76044 3.92227 2.82886C3.58489 2.89728 3.2754 3.0643 3.03302 3.30876C2.79063 3.55321 2.62626 3.86411 2.56071 4.20207C2.49517 4.54002 2.53141 4.88983 2.66484 5.20717C2.79827 5.52451 3.02288 5.79511 3.31023 5.98469C3.59758 6.17427 3.93473 6.2743 4.27897 6.2721C4.50693 6.27138 4.7325 6.2257 4.94277 6.13768C5.15304 6.04966 5.34389 5.92104 5.50439 5.75917C5.66489 5.5973 5.79189 5.40536 5.87811 5.19434C5.96433 4.98332 6.00809 4.75737 6.00687 4.52942Z" fill="white"/>
</svg>
