<svg width="20" height="19" viewBox="0 0 20 19" fill="none" xmlns="http://www.w3.org/2000/svg">
<path d="M7.5 0.396484C11.6421 0.396484 15 3.75435 15 7.89648C15 9.34904 14.585 10.7039 13.8701 11.8525L19.207 17.1895L17.793 18.6035L12.5908 13.4014C11.2534 14.6388 9.46571 15.3965 7.5 15.3965C3.35786 15.3965 0 12.0386 0 7.89648C0 3.75435 3.35786 0.396484 7.5 0.396484ZM7.5 2.39648C4.46243 2.39648 2 4.85892 2 7.89648C2 10.9341 4.46243 13.3965 7.5 13.3965C10.5376 13.3965 13 10.9341 13 7.89648C13 4.85892 10.5376 2.39648 7.5 2.39648Z" fill="#2A2A2A"/>
</svg>
