<svg width="76" height="78" viewBox="0 0 76 78" fill="none" xmlns="http://www.w3.org/2000/svg">
<path d="M1.75336 77.4629H9.79508C10.4944 77.4629 10.9605 76.9866 10.9605 76.2721C10.9605 75.5576 10.4944 75.0813 9.79508 75.0813H1.75336C1.05408 75.0813 0.587891 75.5576 0.587891 76.2721C0.587891 76.9866 1.05408 77.4629 1.75336 77.4629Z" fill="white"/>
<path d="M37.65 6.13379C34.8529 6.13379 32.522 8.51539 32.522 11.3733C32.522 14.2312 34.8529 16.6129 37.65 16.6129C40.4471 16.6129 42.7781 14.2312 42.7781 11.3733C42.7781 8.51539 40.4471 6.13379 37.65 6.13379ZM37.65 14.2312C36.1349 14.2312 34.8529 12.9214 34.8529 11.3733C34.8529 9.82528 36.1349 8.51539 37.65 8.51539C39.1651 8.51539 40.4471 9.82528 40.4471 11.3733C40.4471 12.9214 39.1651 14.2312 37.65 14.2312Z" fill="white"/>
<path d="M37.6512 0.537109C29.726 0.537109 23.3159 7.08652 23.3159 15.184C23.3159 23.4005 29.8425 29.8308 37.6512 29.8308C45.5763 29.9499 51.9864 23.2814 51.9864 15.184C51.9864 7.08652 45.5763 0.537109 37.6512 0.537109ZM37.6512 27.5683C34.854 27.5683 31.9404 26.4966 29.726 24.2341C34.2713 19.709 41.031 19.709 45.5763 24.2341C43.3619 26.3775 40.5648 27.5683 37.6512 27.5683ZM47.3245 22.567C41.8468 16.9702 33.572 16.9702 27.9778 22.567C26.4627 20.5426 25.6469 18.0419 25.6469 15.3031C25.6469 8.51549 31.008 3.03779 37.6512 3.03779C44.2943 2.91871 49.6555 8.39641 49.6555 15.184C49.6555 17.9228 48.7231 20.5426 47.3245 22.567Z" fill="white"/>
<path d="M63.64 70.0803C64.3393 70.0803 64.8055 69.6039 64.8055 68.8895V51.3847L67.7191 54.3617C68.1853 54.838 68.8846 54.838 69.3508 54.3617C69.817 53.8854 69.817 53.1709 69.3508 52.6945L64.4558 47.6932C63.9897 47.2169 63.2904 47.2169 62.8242 47.6932L57.9292 52.6945C57.463 53.1709 57.463 53.8854 57.9292 54.3617C58.3954 54.838 59.0947 54.838 59.5609 54.3617L62.4745 51.3847V68.8895C62.4745 69.6039 63.0573 70.0803 63.64 70.0803Z" fill="white"/>
<path d="M11.5439 69.723C12.0101 70.1993 12.7094 70.1993 13.1756 69.723L18.0705 64.7217C18.5367 64.2453 18.5367 63.5309 18.0705 63.0545C17.6043 62.5782 16.9051 62.5782 16.4389 63.0545L13.5252 66.0315V48.5267C13.5252 47.8123 13.059 47.3359 12.3597 47.3359C11.6605 47.3359 11.1943 47.8123 11.1943 48.5267V66.0315L8.28061 63.0545C7.81442 62.5782 7.11514 62.5782 6.64896 63.0545C6.18277 63.5309 6.18277 64.2453 6.64896 64.7217L11.5439 69.723Z" fill="white"/>
<path d="M12.3601 31.8553C14.8076 31.8553 16.6723 29.831 16.6723 27.4494C16.6723 25.0678 14.691 22.9243 12.3601 22.9243C10.0291 22.9243 8.04785 24.9487 8.04785 27.3303C8.04785 29.7119 9.9126 31.8553 12.3601 31.8553ZM12.3601 25.3059C13.5255 25.3059 14.3414 26.2586 14.3414 27.3303C14.3414 28.5211 13.409 29.3546 12.3601 29.3546C11.3112 29.3546 10.3788 28.402 10.3788 27.3303C10.3788 26.2586 11.1946 25.3059 12.3601 25.3059Z" fill="white"/>
<path d="M12.2426 42.5725C18.7692 42.6916 24.1303 37.2139 24.1303 30.5454C24.1303 23.8769 18.8857 18.5183 12.3591 18.5183C5.83249 18.5183 0.587891 23.8769 0.587891 30.5454C0.587891 37.0948 5.83249 42.4534 12.2426 42.5725ZM12.3591 40.1909C10.1447 40.1909 8.04688 39.3574 6.29868 37.6902C9.79507 34.356 14.9231 34.356 18.4195 37.6902C16.6713 39.3574 14.5735 40.1909 12.3591 40.1909ZM12.3591 20.7808C17.6037 20.7808 21.7994 25.0677 21.7994 30.4263C21.7994 32.4507 21.2166 34.356 20.0512 36.0231C15.6224 31.7362 8.97925 31.7362 4.55048 36.0231C3.50156 34.4751 2.80228 32.5698 2.80228 30.4263C2.91882 25.1868 7.1145 20.7808 12.3591 20.7808Z" fill="white"/>
<path d="M63.6404 22.9243C61.1929 22.9243 59.3281 24.9487 59.3281 27.3303C59.3281 29.7119 61.3094 31.8553 63.6404 31.8553C65.9713 31.8553 67.9526 29.831 67.9526 27.4494C67.9526 25.0678 66.0878 22.9243 63.6404 22.9243ZM63.6404 29.4737C62.4749 29.4737 61.6591 28.5211 61.6591 27.4494C61.6591 26.2586 62.5914 25.425 63.6404 25.425C64.8058 25.425 65.6216 26.3776 65.6216 27.4494C65.6216 28.5211 64.8058 29.4737 63.6404 29.4737Z" fill="white"/>
<path d="M63.6399 18.3992C57.1132 18.3992 51.8687 23.7578 51.8687 30.4263C51.8687 37.0948 57.1133 42.4534 63.5233 42.4534C70.0499 42.5725 75.4111 37.0948 75.4111 30.4263C75.4111 23.8769 70.1665 18.3992 63.6399 18.3992ZM63.6399 40.1909C61.542 40.1909 59.3276 39.3573 57.5794 37.6902C61.0758 34.3559 66.2039 34.3559 69.7003 37.6902C67.9521 39.3573 65.8542 40.1909 63.6399 40.1909ZM71.4485 36.023C67.0197 31.7362 60.3766 31.7362 55.9478 36.023C54.8989 34.475 54.1996 32.5697 54.1996 30.4263C54.1996 25.0677 58.3953 20.7808 63.6399 20.7808C68.8845 20.7808 73.0801 25.0677 73.0801 30.4263C73.0801 32.5697 72.4974 34.475 71.4485 36.023Z" fill="white"/>
<path d="M44.5267 55.5524C44.0605 55.1952 43.5943 54.5998 43.2447 54.0044C44.8763 52.6945 46.0418 50.6701 46.508 48.4076L47.5569 41.7391C48.3727 36.6187 44.5267 32.8081 40.0979 32.8081H35.4361C32.0562 32.8081 29.1425 34.9516 28.2102 38.2858C27.5109 40.7865 28.3267 42.8108 29.1425 48.5267C29.4922 50.7892 30.6577 52.6945 32.4059 54.1235C32.0562 54.5998 31.59 55.1952 31.1238 55.5524C25.8792 55.9097 21.6836 60.4347 21.6836 65.9124V75.0816H17.6044C16.9052 75.0816 16.439 75.5579 16.439 76.2724C16.439 76.9869 16.9052 77.4632 17.6044 77.4632H74.013C74.7123 77.4632 75.1785 76.9869 75.1785 76.2724C75.1785 75.5579 74.7123 75.0816 74.013 75.0816H54.0835V65.9124C54.0835 60.4347 49.8878 55.9097 44.5267 55.5524ZM30.4246 39.0003C31.1238 36.7378 33.1051 35.1897 35.4361 35.1897H40.0979C42.7785 35.1897 44.8763 37.2141 45.226 39.4766C44.1771 40.5483 43.1281 41.0246 42.0792 40.9056C40.5641 40.6674 39.3987 39.0003 39.049 38.2858C38.8159 37.8095 38.3497 37.5713 37.8835 37.6904C37.4174 37.6904 37.0677 38.0476 36.8346 38.524C36.8346 38.524 36.0188 41.1437 34.0375 42.2154C32.9886 42.8108 31.8231 42.9299 30.4246 42.5727C30.5411 41.8582 30.0749 40.4292 30.4246 39.0003ZM31.4735 48.0504L31.0073 45.1925C34.2706 45.6688 36.8346 44.1207 38.4663 41.2628C40.331 43.2872 42.662 44.0016 45.1094 42.6918L44.1771 48.0504C43.7109 51.2655 41.0303 53.5281 37.767 53.5281C34.5037 53.5281 32.0562 51.2655 31.4735 48.0504ZM40.0979 59.1248C39.9814 59.1248 39.9814 59.1248 39.8648 59.1248H35.7857C35.6692 59.1248 35.6692 59.1248 35.5526 59.1248L33.2217 56.7432C33.5713 56.386 34.0375 55.7906 34.3871 55.3143C35.4361 55.7906 36.6015 56.0288 37.767 56.0288C38.9325 56.0288 40.0979 55.7906 41.2634 55.3143C41.613 55.9097 41.9627 56.386 42.4289 56.7432L40.0979 59.1248ZM40.4476 67.4605L37.8835 70.5565L35.3195 67.4605L36.7181 61.5065H38.9325L40.4476 67.4605ZM51.7526 75.0816H24.0145V65.9124C24.0145 61.7446 27.1613 58.2913 31.1238 57.934L34.3871 61.2683L32.872 67.4605C32.7555 67.8177 32.872 68.1749 33.1051 68.5322L36.9512 73.2954C37.4174 73.8908 38.2332 73.8908 38.6994 73.2954L42.5454 68.5322C42.7785 68.294 42.895 67.8177 42.7785 67.4605L41.2634 61.2683L44.5267 57.934C48.6058 58.2913 51.636 61.7446 51.636 65.9124V75.0816H51.7526Z" fill="white"/>
</svg>
